<svg width="124" height="42" viewBox="0 0 124 42" fill="none" xmlns="http://www.w3.org/2000/svg">
<path d="M22.2443 20.708C22.2443 19.1106 22.5266 17.55 23.0912 16.0263C23.6803 14.478 24.5272 13.0771 25.6319 11.8237C26.7366 10.5458 28.0867 9.53816 29.6824 8.80087C31.278 8.03901 33.0946 7.65808 35.1321 7.65808C37.5378 7.65808 39.6121 8.18647 41.355 9.24324C43.1225 10.3 44.4358 11.6763 45.295 13.372L41.3919 16.0631C40.95 15.0801 40.3731 14.3059 39.6612 13.7407C38.9493 13.1509 38.1883 12.7453 37.3782 12.5242C36.5681 12.2784 35.7703 12.1555 34.9848 12.1555C33.7083 12.1555 32.5913 12.4136 31.6339 12.9297C30.7011 13.4458 29.9156 14.1216 29.2773 14.9572C28.6391 15.7928 28.1604 16.7267 27.8413 17.7589C27.5467 18.7911 27.3994 19.8233 27.3994 20.8555C27.3994 22.0106 27.5835 23.1288 27.9517 24.2101C28.3199 25.2669 28.8355 26.2131 29.4983 27.0487C30.1856 27.8597 30.9957 28.5109 31.9285 29.0025C32.8859 29.4694 33.9292 29.7029 35.0584 29.7029C35.8685 29.7029 36.6909 29.5677 37.5255 29.2974C38.3602 29.027 39.1334 28.597 39.8453 28.0071C40.5572 27.4173 41.1096 26.6554 41.5023 25.7215L45.6632 28.1177C45.1477 29.4203 44.3008 30.5262 43.1225 31.4355C41.9687 32.3448 40.6677 33.033 39.2193 33.4999C37.771 33.9668 36.3349 34.2003 34.9111 34.2003C33.0455 34.2003 31.3394 33.8194 29.7928 33.0575C28.2463 32.2711 26.9084 31.2389 25.7792 29.9609C24.6745 28.6584 23.8031 27.2084 23.1648 25.611C22.5511 23.9889 22.2443 22.3546 22.2443 20.708Z" fill="white"/>
<path d="M47.2667 28.2652C47.2667 27.0118 47.6104 25.9182 48.2978 24.9843C49.0097 24.0258 49.9916 23.2885 51.2435 22.7724C52.4955 22.2563 53.9316 21.9983 55.5518 21.9983C56.3618 21.9983 57.1842 22.0597 58.0188 22.1826C58.8535 22.3055 59.5777 22.5021 60.1914 22.7724V21.7402C60.1914 20.5114 59.8231 19.5652 59.0867 18.9017C58.3748 18.2381 57.3069 17.9063 55.8832 17.9063C54.8276 17.9063 53.8211 18.0907 52.8637 18.4593C51.9063 18.8279 50.8999 19.3686 49.8443 20.0813L48.2609 16.8373C49.5374 16.0017 50.8385 15.375 52.1641 14.9572C53.5143 14.5394 54.9258 14.3305 56.3987 14.3305C59.1481 14.3305 61.2838 15.0186 62.8057 16.3949C64.3523 17.7712 65.1255 19.7373 65.1255 22.2932V28.4495C65.1255 28.9656 65.2115 29.3342 65.3833 29.5554C65.5797 29.7766 65.8865 29.9118 66.3039 29.9609V33.9791C65.862 34.0529 65.4569 34.1143 65.0887 34.1635C64.745 34.2126 64.4505 34.2372 64.205 34.2372C63.2231 34.2372 62.4743 34.016 61.9588 33.5736C61.4679 33.1313 61.161 32.5906 61.0383 31.9516L60.9278 30.9563C60.0932 32.0376 59.0499 32.8732 57.7979 33.463C56.546 34.0529 55.2694 34.3478 53.9684 34.3478C52.6919 34.3478 51.5381 34.0897 50.5071 33.5736C49.5006 33.033 48.7028 32.308 48.1136 31.3986C47.549 30.4647 47.2667 29.4203 47.2667 28.2652ZM59.2708 29.2605C59.5408 28.9656 59.7618 28.6707 59.9336 28.3758C60.1054 28.0809 60.1914 27.8105 60.1914 27.5648V25.611C59.6022 25.3652 58.964 25.1809 58.2766 25.058C57.5893 24.9105 56.9387 24.8368 56.325 24.8368C55.0485 24.8368 53.9929 25.1194 53.1583 25.6847C52.3482 26.2254 51.9432 26.9504 51.9432 27.8597C51.9432 28.3512 52.0782 28.8181 52.3482 29.2605C52.6182 29.7029 53.011 30.0592 53.5265 30.3296C54.042 30.5999 54.6557 30.7351 55.3676 30.7351C56.1041 30.7351 56.8283 30.5999 57.5402 30.3296C58.2521 30.0347 58.8289 29.6783 59.2708 29.2605Z" fill="white"/>
<path d="M99.7097 33.9791H94.7756V23.1411C94.7756 21.6173 94.5055 20.4991 93.9655 19.7864C93.4499 19.0491 92.7258 18.6805 91.7929 18.6805C90.8356 18.6805 89.915 19.0614 89.0313 19.8233C88.1721 20.5606 87.5584 21.5313 87.1902 22.7355V33.9791H82.256V23.1411C82.256 21.5928 81.9859 20.4623 81.4459 19.7495C80.9304 19.0368 80.2062 18.6805 79.2734 18.6805C78.316 18.6805 77.3954 19.0491 76.5117 19.7864C75.6525 20.5237 75.0388 21.4945 74.6706 22.6987V33.9791H69.7364V14.6623H74.1919V18.2381C74.9283 16.9847 75.9103 16.0263 77.1377 15.3627C78.3651 14.6746 79.7766 14.3305 81.3722 14.3305C82.9679 14.3305 84.2076 14.7237 85.0913 15.5102C85.9996 16.2966 86.5765 17.2674 86.8219 18.4224C87.6075 17.0953 88.6017 16.0877 89.8045 15.3996C91.0319 14.6869 92.4066 14.3305 93.9286 14.3305C95.1315 14.3305 96.1012 14.5517 96.8376 14.9941C97.5986 15.4119 98.1877 15.9894 98.6051 16.7267C99.0224 17.4394 99.3047 18.2504 99.452 19.1597C99.6238 20.069 99.7097 20.9906 99.7097 21.9245V33.9791Z" fill="white"/>
<path d="M115.568 34.3478C114.07 34.3478 112.745 34.016 111.591 33.3524C110.462 32.6643 109.578 31.7427 108.94 30.5876V41.8312H104.006V14.6623H108.314V17.9801C109.05 16.8496 109.983 15.9648 111.112 15.3258C112.241 14.6623 113.53 14.3305 114.979 14.3305C116.28 14.3305 117.47 14.5886 118.55 15.1047C119.655 15.6208 120.612 16.3457 121.423 17.2796C122.233 18.189 122.859 19.2457 123.3 20.45C123.767 21.6296 124 22.9076 124 24.2838C124 26.1516 123.632 27.8474 122.895 29.3711C122.184 30.8948 121.189 32.1113 119.913 33.0207C118.661 33.9054 117.213 34.3478 115.568 34.3478ZM113.911 30.1453C114.672 30.1453 115.359 29.9855 115.973 29.666C116.587 29.3465 117.114 28.9164 117.556 28.3758C118.023 27.8105 118.366 27.1838 118.587 26.4957C118.833 25.783 118.955 25.0457 118.955 24.2838C118.955 23.4728 118.82 22.7233 118.55 22.0351C118.305 21.347 117.937 20.7449 117.446 20.2288C116.955 19.6881 116.378 19.2703 115.715 18.9754C115.077 18.6805 114.377 18.533 113.616 18.533C113.15 18.533 112.671 18.619 112.18 18.7911C111.714 18.9385 111.26 19.1597 110.818 19.4546C110.376 19.7495 109.983 20.0936 109.639 20.4868C109.32 20.88 109.087 21.3101 108.94 21.7771V26.3114C109.234 27.0241 109.627 27.6754 110.118 28.2652C110.634 28.855 111.223 29.322 111.886 29.666C112.548 29.9855 113.223 30.1453 113.911 30.1453Z" fill="white"/>
<rect y="41.679" width="41.6789" height="18.3189" rx="9.15945" transform="rotate(-90 0 41.679)" fill="#F66F5D"/>
<path d="M14.319 30.706C14.319 31.4461 14.1765 32.1197 13.8916 32.727C13.5971 33.3247 13.2077 33.8418 12.7232 34.2782C12.2388 34.7052 11.6926 35.0373 11.0847 35.2745C10.4673 35.5117 9.83563 35.6302 9.18972 35.6302C8.51531 35.6302 7.87415 35.5069 7.26623 35.2602C6.64882 35.004 6.10264 34.6577 5.62771 34.2213C5.14328 33.7754 4.76333 33.2535 4.48787 32.6558C4.2029 32.0486 4.06042 31.3844 4.06042 30.6633C4.06042 29.9328 4.20765 29.2686 4.50211 28.6709C4.79657 28.0637 5.19077 27.5466 5.6847 27.1196C6.17863 26.6927 6.72956 26.3606 7.33747 26.1234C7.94539 25.8862 8.5723 25.7676 9.21821 25.7676C9.88312 25.7676 10.5243 25.8909 11.1417 26.1376C11.7496 26.3843 12.2958 26.7306 12.7802 27.1765C13.2552 27.613 13.6304 28.1348 13.9058 28.742C14.1813 29.3398 14.319 29.9944 14.319 30.706ZM12.5807 30.6918C12.5807 30.2174 12.4858 29.7952 12.2958 29.4252C12.0963 29.0551 11.8351 28.7468 11.5121 28.5001C11.1797 28.2534 10.814 28.0684 10.415 27.9451C10.0066 27.8122 9.59816 27.7458 9.18972 27.7458C8.75278 27.7458 8.33008 27.817 7.92164 27.9593C7.5132 28.0921 7.15225 28.2866 6.83879 28.5428C6.52533 28.7895 6.27362 29.0978 6.08365 29.4679C5.89367 29.8284 5.79868 30.2364 5.79868 30.6918C5.79868 31.1757 5.89842 31.6026 6.09789 31.9727C6.28787 32.3332 6.54908 32.6368 6.88154 32.8835C7.20449 33.1302 7.56544 33.3199 7.96439 33.4528C8.36333 33.5761 8.77177 33.6378 9.18972 33.6378C9.62666 33.6378 10.0493 33.5714 10.4578 33.4385C10.8662 33.3057 11.2272 33.116 11.5406 32.8693C11.8541 32.6131 12.1058 32.3047 12.2958 31.9442C12.4858 31.5742 12.5807 31.1567 12.5807 30.6918ZM10.5005 30.8911V29.0409L14.2478 25.7107V27.5608L10.5005 30.8911Z" fill="white"/>
<path d="M4.13166 21.6672V19.6747L14.2478 15.9602V17.9811L11.7259 18.9204V22.4499L14.2478 23.375V25.3959L4.13166 21.6672ZM10.3438 19.2762L6.16913 20.6709L10.3438 22.1226V19.2762Z" fill="white"/>
<path d="M4.13166 13.7987L7.86465 11.2939L4.13166 8.80336V6.66859L9.26096 10.1696L14.2478 6.78244V8.91722L10.6573 11.2939L14.2478 13.6849V15.8339L9.26096 12.4467L4.13166 15.9477L4.13166 13.7987Z" fill="white"/>
</svg>
