<svg width="122" height="66" viewBox="0 0 122 66" fill="none" xmlns="http://www.w3.org/2000/svg">
<path d="M60.2359 17.0278H66.4581L78.0137 49.0278H71.667L69.0626 41.0278H57.507L54.8404 49.0278H48.6537L60.2359 17.0278ZM67.6492 36.6723L63.3292 23.4723L58.9915 36.6723H67.6492Z" fill="#E9E8EA"/>
<path d="M90.1287 17.0278L97.9065 28.8323L105.649 17.0278H112.28L101.4 33.2501L111.924 49.01H105.293L97.9065 37.6589L90.4842 49.01H83.8087L94.3331 33.2501L83.4531 17.0278H90.1287Z" fill="#E9E8EA"/>
<path d="M46.8402 49.0106L42.538 44.1128C43.8033 42.6592 44.8104 40.9996 45.5158 39.2062C47.0295 35.3522 47.0453 31.0712 45.5602 27.2062C44.8366 25.2994 43.7902 23.5314 42.4669 21.9795C41.1411 20.4154 39.5071 19.1415 37.6669 18.2373C35.7315 17.2891 33.5997 16.8109 31.4447 16.8417C29.3181 16.8171 27.2132 17.2697 25.2847 18.1662C24.1794 18.689 23.1409 19.3425 22.1913 20.1128L25.8625 24.3173C26.337 23.9031 26.8556 23.5424 27.4091 23.2417C28.6325 22.6192 29.9926 22.3136 31.3647 22.3528C32.6958 22.3257 34.0126 22.6313 35.1958 23.2417C36.3091 23.826 37.2872 24.6376 38.0669 25.624C38.8537 26.6528 39.4552 27.8109 39.8447 29.0462C40.668 31.6038 40.668 34.3553 39.8447 36.9128C39.5684 37.879 39.168 38.8052 38.6536 39.6684L36.4936 37.2062H30.778L35.578 42.7084L35.3291 42.8595C34.1107 43.4781 32.7574 43.7836 31.3913 43.7484C30.0488 43.7766 28.7202 43.4711 27.5247 42.8595C26.4114 42.2752 25.4332 41.4636 24.6536 40.4773C23.861 39.4488 23.2589 38.2868 22.8758 37.0462C22.4655 35.7496 22.2586 34.3972 22.2625 33.0373C22.2319 31.7236 22.4059 30.4131 22.778 29.1528C22.8225 28.9928 22.8847 28.8506 22.938 28.6995L18.7425 23.8995C18.1191 24.8537 17.5892 25.8658 17.1602 26.9217C16.3812 28.8598 15.9858 30.9307 15.9958 33.0195C15.9938 35.0614 16.3674 37.0862 17.098 38.9928C17.8172 40.8995 18.8741 42.661 20.218 44.1928C21.5577 45.7313 23.197 46.9805 25.0358 47.864C26.9766 48.7948 29.1057 49.2663 31.258 49.2417C33.3919 49.2729 35.5057 48.8264 37.4447 47.9351C38.0579 47.6314 38.6516 47.29 39.2225 46.9128L41.0536 49.0106H46.8402Z" fill="#E9E8EA"/>
<path d="M121 9H9V65H121V9Z" stroke="#E9E8EA" stroke-miterlimit="10"/>
<path d="M81 1H1V57H81V1Z" stroke="#E9E8EA" stroke-miterlimit="10"/>
</svg>
