<svg version="1.2" baseProfile="tiny-ps" xmlns="http://www.w3.org/2000/svg" viewBox="0 0 48 48" width="47" height="47">
	<title>social-icon-2-svg</title>
	<style>
		tspan { white-space:pre }
		.shp0 { fill: #0087cb } 
		.shp1 { fill: #eeeeee } 
		.shp2 { fill: #ccd9e9 } 
		.shp3 { fill: #b1c8db } 
	</style>
	<path id="Layer" class="shp0" d="M23.72 0.1C30.15 0.14 35.64 2.25 40.23 6.58C44.8 10.9 47.29 16.25 47.59 22.54C47.91 29.27 45.76 35.15 41.09 40.02C36.51 44.82 30.85 47.29 24.2 47.35C18.02 47.42 12.6 45.34 8.05 41.15C2.69 36.2 0.12 30 0.39 22.72C0.62 16.61 2.97 11.36 7.29 7.05C11.85 2.49 17.42 0.22 23.72 0.1Z" />
	<path id="Layer" class="shp1" d="M16.73 26.92C15.45 26.53 14.15 26.12 12.86 25.72C12.23 25.53 11.6 25.33 10.97 25.13C10.73 25.05 10.51 24.98 10.31 24.83C9.94 24.56 9.92 24.21 10.23 23.87C10.44 23.64 10.7 23.48 10.99 23.36C11.76 23.06 12.52 22.76 13.28 22.45C18.53 20.43 23.78 18.4 29.05 16.37C30.72 15.73 32.37 15.09 34.04 14.44C34.26 14.35 34.5 14.3 34.75 14.34C35.25 14.42 35.63 14.82 35.68 15.35C35.71 15.64 35.7 15.93 35.64 16.22C35 19.24 34.36 22.27 33.71 25.29C33.19 27.79 32.65 30.28 32.12 32.79C32.01 33.35 31.89 33.92 31.77 34.48C31.72 34.76 31.64 35.02 31.51 35.27C31.24 35.76 30.82 35.94 30.29 35.84C29.96 35.77 29.67 35.63 29.41 35.43C27.59 34.09 25.78 32.74 23.96 31.4C23.88 31.33 23.78 31.28 23.71 31.23C23.39 31.13 23.17 30.9 22.92 30.71C22.05 30.08 21.18 29.43 20.32 28.8C20.25 28.74 20.19 28.69 20.13 28.63C20.05 28.5 20.13 28.42 20.21 28.34C21.39 27.29 22.56 26.21 23.75 25.16C24.6 24.38 25.47 23.61 26.32 22.83C27.17 22.06 28.03 21.3 28.88 20.54C29.55 19.93 30.22 19.34 30.88 18.74C30.93 18.68 30.98 18.63 31.03 18.58C31.07 18.53 31.13 18.47 31.1 18.41C31.07 18.33 30.99 18.33 30.93 18.33C30.69 18.3 30.5 18.4 30.3 18.51C29.58 18.95 28.88 19.41 28.17 19.85C26.02 21.21 23.85 22.57 21.7 23.92C20.21 24.86 18.73 25.79 17.24 26.74C17.07 26.83 16.96 27 16.73 26.92Z" />
	<path id="Layer" class="shp2" d="M16.73 26.92C17.09 26.77 17.39 26.54 17.72 26.34C18.66 25.75 19.61 25.16 20.55 24.55C21.22 24.13 21.88 23.7 22.55 23.28C23.65 22.58 24.77 21.89 25.89 21.19C26.66 20.71 27.44 20.21 28.22 19.71C28.91 19.27 29.59 18.84 30.27 18.41C30.5 18.28 30.72 18.2 30.99 18.22C31.07 18.24 31.15 18.24 31.18 18.32C31.22 18.39 31.19 18.47 31.13 18.55C30.97 18.71 30.82 18.88 30.64 19.02C30.31 19.29 30.02 19.59 29.71 19.87C29.2 20.3 28.72 20.77 28.21 21.2C28 21.39 27.8 21.59 27.59 21.77C27.29 22.02 27 22.32 26.71 22.58C26.27 22.99 25.81 23.38 25.36 23.78C25.16 23.96 24.95 24.15 24.77 24.33C24.28 24.79 23.77 25.22 23.29 25.68C22.69 26.22 22.09 26.75 21.51 27.3C21.09 27.69 20.65 28.06 20.21 28.44C20.15 28.49 20.15 28.55 20.19 28.61C20.09 30.1 19.99 31.58 19.9 33.06C19.87 33.46 19.82 33.84 19.83 34.23C19.83 34.35 19.83 34.46 19.74 34.55C19.66 34.57 19.57 34.57 19.49 34.57C19.25 34.56 19.08 34.44 19.02 34.22C18.95 33.98 18.87 33.76 18.81 33.52C18.16 31.41 17.52 29.28 16.88 27.17C16.81 27.08 16.77 27 16.73 26.92Z" />
	<path id="Layer" class="shp3" d="M19.7 34.54C19.66 34.02 19.75 33.51 19.77 33.01C19.79 32.46 19.84 31.91 19.87 31.36C19.91 30.79 19.95 30.23 19.99 29.68C20 29.39 20.03 29.1 20.03 28.82C20.03 28.73 20.06 28.67 20.15 28.61C21.21 29.4 22.27 30.18 23.33 30.96C23.44 31.06 23.57 31.12 23.67 31.24C22.68 32.2 21.68 33.16 20.7 34.12C20.44 34.38 20.12 34.59 19.7 34.54Z" />
</svg>