<svg width="54" height="55" viewBox="0 0 54 55" fill="none" xmlns="http://www.w3.org/2000/svg">
<path fill-rule="evenodd" clip-rule="evenodd" d="M27 51.3507C40.0477 51.3507 50.625 40.7734 50.625 27.7257C50.625 14.678 40.0477 4.10071 27 4.10071C13.9523 4.10071 3.375 14.678 3.375 27.7257C3.375 40.7734 13.9523 51.3507 27 51.3507Z" fill="#47426C"/>
<path fill-rule="evenodd" clip-rule="evenodd" d="M27 30.452L40.6298 18.6395H13.3702L27 30.452ZM23.3186 29.1444L27 32.1662L30.6237 29.1444L40.6298 37.7213H13.3702L23.3186 29.1444ZM12.4615 36.8126V19.5482L22.4567 28.1804L12.4615 36.8126ZM41.5384 36.8126V19.5482L31.5432 28.1804L41.5384 36.8126Z" fill="#EFEFEF"/>
</svg>
