<svg width="54" height="55" viewBox="0 0 54 55" fill="none" xmlns="http://www.w3.org/2000/svg">
<circle cx="27" cy="27.7257" r="22.5" fill="#EFEFEF"/>
<path fill-rule="evenodd" clip-rule="evenodd" d="M23.6649 40.5781H28.9758V27.7246H32.5188L32.9881 23.2957H28.9758L28.9813 21.0781C28.9813 19.9236 29.0916 19.3038 30.7485 19.3038H32.9629V14.8741H29.4192C25.1627 14.8741 23.6649 17.0232 23.6649 20.6363V23.2957H21.0118V27.7253H23.6649V40.5781ZM27 51.3511C13.9527 51.3511 3.37495 40.7734 3.37495 27.7261C3.37495 14.678 13.9527 4.10114 27 4.10114C40.0473 4.10114 50.625 14.678 50.625 27.7261C50.625 40.7734 40.0473 51.3511 27 51.3511Z" fill="#3A589B"/>
</svg>
