<svg width="54" height="55" viewBox="0 0 54 55" fill="none" xmlns="http://www.w3.org/2000/svg">
<path fill-rule="evenodd" clip-rule="evenodd" d="M27 51.3507C40.0477 51.3507 50.625 40.7734 50.625 27.7257C50.625 14.678 40.0477 4.10071 27 4.10071C13.9523 4.10071 3.375 14.678 3.375 27.7257C3.375 40.7734 13.9523 51.3507 27 51.3507Z" fill="#47426C"/>
<path d="M30.9745 39.7257C30.1263 39.7192 29.2819 39.6079 28.4588 39.3944C25.6161 38.6779 22.6889 36.8602 20.2177 34.2762C17.7465 31.6922 16.0044 28.6335 15.3186 25.6666C14.5964 22.5456 15.1115 19.8755 16.7673 18.1456L17.2401 17.6517C17.669 17.2045 18.2503 16.9533 18.8563 16.9533C19.4623 16.9533 20.0436 17.2045 20.4725 17.6517L23.1894 20.4895C23.6177 20.9375 23.8583 21.5448 23.8583 22.178C23.8583 22.8112 23.6177 23.4185 23.1894 23.8665L21.5845 25.5425C22.3539 26.9529 23.4003 28.3645 24.637 29.6565C25.8737 30.9485 27.2259 32.0422 28.5753 32.846L30.1796 31.1694C30.3919 30.9476 30.6438 30.7716 30.9211 30.6516C31.1984 30.5316 31.4957 30.4698 31.7959 30.4698C32.096 30.4698 32.3933 30.5316 32.6706 30.6516C32.9479 30.7716 33.1999 30.9476 33.4121 31.1694L36.1284 34.0071C36.5568 34.455 36.7975 35.0622 36.7975 35.6954C36.7975 36.3285 36.5568 36.9358 36.1284 37.3836L35.6551 37.8775C34.4878 39.0993 32.8721 39.7257 30.9745 39.7257ZM18.8563 18.6515C18.7697 18.651 18.6839 18.6686 18.604 18.7032C18.524 18.7379 18.4514 18.7888 18.3906 18.8531L17.9172 19.347C16.6773 20.6424 16.3151 22.7455 16.8974 25.2656C17.5139 27.9351 19.1008 30.7089 21.3655 33.0742C23.6301 35.4396 26.2846 37.0958 28.8405 37.7421C31.2531 38.3505 33.2652 37.9721 34.5051 36.6767L34.9779 36.1828C35.1014 36.0536 35.1708 35.8785 35.1708 35.6959C35.1708 35.5134 35.1014 35.3382 34.9779 35.2091L32.2621 32.3713C32.1385 32.2423 31.9709 32.1698 31.7961 32.1698C31.6214 32.1698 31.4538 32.2423 31.3301 32.3713L29.2964 34.496C29.1744 34.6235 29.0167 34.7072 28.8461 34.7349C28.6755 34.7626 28.501 34.7329 28.3476 34.65C26.6804 33.7494 24.9997 32.4382 23.487 30.8578C21.9743 29.2775 20.7219 27.5227 19.8577 25.781C19.7783 25.6209 19.7498 25.4385 19.7762 25.2603C19.8026 25.0821 19.8826 24.9173 20.0046 24.7898L22.0389 22.6651C22.1624 22.536 22.2318 22.3609 22.2318 22.1783C22.2318 21.9957 22.1624 21.8206 22.0389 21.6914L19.3226 18.8531C19.2615 18.7889 19.1888 18.738 19.1088 18.7034C19.0287 18.6688 18.9429 18.6511 18.8563 18.6515V18.6515Z" fill="#EFEFEF"/>
<path d="M33.7806 28.4998C33.5649 28.4998 33.358 28.4103 33.2055 28.251C33.053 28.0916 32.9673 27.8755 32.9673 27.6502C32.9657 26.1597 32.3983 24.7306 31.3895 23.6766C30.3807 22.6226 29.0129 22.0297 27.5862 22.0279C27.3705 22.0279 27.1637 21.9384 27.0111 21.779C26.8586 21.6197 26.7729 21.4036 26.7729 21.1782C26.7729 20.9529 26.8586 20.7368 27.0111 20.5775C27.1637 20.4181 27.3705 20.3286 27.5862 20.3286C31.4503 20.3286 34.5938 23.6139 34.5938 27.6502C34.5938 27.8755 34.5082 28.0916 34.3556 28.251C34.2031 28.4103 33.9963 28.4998 33.7806 28.4998Z" fill="#EFEFEF"/>
<path d="M38.1867 27.488C37.9711 27.488 37.7642 27.3985 37.6117 27.2392C37.4592 27.0798 37.3735 26.8637 37.3735 26.6384C37.3735 21.5582 33.4156 17.425 28.555 17.425C28.3393 17.425 28.1324 17.3355 27.9799 17.1761C27.8274 17.0168 27.7417 16.8007 27.7417 16.5753C27.7417 16.35 27.8274 16.1339 27.9799 15.9746C28.1324 15.8152 28.3393 15.7257 28.555 15.7257C34.3145 15.7257 39 20.6213 39 26.6384C39 26.8637 38.9143 27.0798 38.7618 27.2392C38.6093 27.3985 38.4024 27.488 38.1867 27.488Z" fill="#EFEFEF"/>
</svg>
